<?xml version="1.0" standalone="no"?><!DOCTYPE svg PUBLIC "-//W3C//DTD SVG 1.1//EN"
  "http://www.w3.org/Graphics/SVG/1.1/DTD/svg11.dtd">
<svg t="1591156716173" class="icon" viewBox="0 0 1024 1024" version="1.1" xmlns="http://www.w3.org/2000/svg" p-id="1826"
     width="200" height="200">
  <defs>
    <style type="text/css"></style>
  </defs>
  <path
    d="M953.86906294 235.83183582l-57.99531457 0c2.76168122 8.28504494 2.76168122 19.33177108 2.76168122 27.61681603l0 635.18677903c0 60.75699579-49.71026963 110.46726541-110.46726541 110.46726542L235.83183582 1009.1026963c-60.75699579 0-110.46726541-49.71026963-110.46726541-110.46726542L125.36456912 263.44865185c0-8.28504494 2.76168122-19.33177108 2.76168122-27.61681603L70.13093706 235.83183582c-16.57008987 0-27.61681602-11.04672615-27.61681603-27.61681602s11.04672615-27.61681602 27.61681603-27.61681603l193.31771479 0L263.44865185 70.13093706c0-30.37849854 24.85513482-55.23363335 55.23363336-55.23363336l414.25224691 0c30.37849854 0 55.23363335 24.85513482 55.23363336 55.23363336l0 110.46726541 165.70089875 0c16.57008987 0 27.61681602 11.04672615 27.61681604 27.61681603S970.43915282 235.83183582 953.86906294 235.83183582zM732.93453212 70.13093706L318.68228521 70.13093706l0 110.46726541 414.25224691 0L732.93453212 70.13093706zM180.59820247 235.83183582l0 662.80359506c0 30.37849854 24.85513482 55.23363335 55.23363335 55.23363335l552.33632966 0c30.37849854 0 55.23363335-24.85513482 55.23363335-55.23363335L843.40179753 235.83183582 180.59820247 235.83183582zM705.31771479 788.16816418c-16.57008987 0-27.61681602-11.04672615-27.61681603-27.61681603L677.70089876 401.53273459c0-16.57008987 11.04672615-27.61681602 27.61681603-27.61681604s27.61681602 11.04672615 27.61681604 27.61681604l0 359.01861356C732.93453212 777.12143803 721.88780468 788.16816418 705.31771479 788.16816418zM512 815.7849815c-16.57008987 0-27.61681602-11.04672615-27.61681602-27.61681602L484.38318398 373.91591727c0-16.57008987 11.04672615-27.61681602 27.61681602-27.61681603s27.61681602 11.04672615 27.61681602 27.61681603l0 414.25224691C539.61681602 804.73825405 528.57008987 815.7849815 512 815.7849815zM318.68228521 788.16816418c-16.57008987 0-27.61681602-11.04672615-27.61681604-27.61681603L291.06546788 401.53273459c0-16.57008987 11.04672615-27.61681602 27.61681602-27.61681604 16.57008987 0 27.61681602 11.04672615 27.61681605 27.61681604l0 359.01861356C346.29910124 777.12143803 335.25237508 788.16816418 318.68228521 788.16816418z"
    fill="#fff"></path>
</svg>
