<?xml version="1.0" standalone="no"?><!DOCTYPE svg PUBLIC "-//W3C//DTD SVG 1.1//EN"
  "http://www.w3.org/Graphics/SVG/1.1/DTD/svg11.dtd">
<svg t="1591145148015" class="icon" viewBox="0 0 1024 1024" version="1.1" xmlns="http://www.w3.org/2000/svg" p-id="1702"
     width="200" height="200">
  <defs>
    <style type="text/css"></style>
  </defs>
  <path
    d="M725.21045333 514.33016889c2.33016889 15.14609778-1.16508445 30.29219555-9.32067555 43.10812444-4.66033778 5.82542222-9.32067555 11.65084445-15.14609778 15.14609778l-524.288 349.52533334c-9.32067555 6.99050667-20.97152 9.32067555-32.62236445 9.32067555-3.49525333 0-8.15559111 0-11.65084444-1.16508445-15.14609778-3.49525333-27.96202667-11.65084445-37.28270222-24.46677333-3.49525333-5.82542222-6.99050667-11.65084445-8.15559111-18.64135111-27.96202667-115.34336-41.94304-237.67722667-41.94304-361.17617778 0-124.66403555 13.98101333-251.65824 41.94304-376.32227555 3.49525333-15.14609778 12.81592889-27.96202667 25.63185777-36.11761778 12.81592889-8.15559111 29.12711111-11.65084445 44.2732089-8.15559111 6.99050667 1.16508445 13.98101333 4.66033778 20.97152 9.32067556L700.74368 477.04746667c12.81592889 9.32067555 20.97152 22.13660445 24.46677333 37.28270222z m215.54062222-380.98261334c-3.49525333-12.81592889-16.31118222-19.80643555-27.96202666-16.31118222-12.81592889 3.49525333-19.80643555 16.31118222-16.31118222 27.96202667 30.29219555 116.50844445 45.43829333 245.83281778 45.43829333 384.47786667 0 108.35285333-15.14609778 230.68672-45.43829333 362.34126222-2.33016889 12.81592889 4.66033778 24.46677333 17.47626666 27.96202666h4.66033778c10.48576 0 19.80643555-6.99050667 22.13660444-18.6413511 30.29219555-135.14979555 46.60337778-259.81383111 46.60337778-372.82702223 0-142.14030222-15.14609778-274.95992889-46.60337778-394.96362667z"
    fill="white"></path>
</svg>
