<?xml version="1.0" standalone="no"?><!DOCTYPE svg PUBLIC "-//W3C//DTD SVG 1.1//EN"
  "http://www.w3.org/Graphics/SVG/1.1/DTD/svg11.dtd">
<svg t="1591145960209" class="icon" viewBox="0 0 1024 1024" version="1.1" xmlns="http://www.w3.org/2000/svg" p-id="1805"
     width="200" height="200">
  <defs>
    <style type="text/css"></style>
  </defs>
  <path
    d="M503.35668148 342.69866667c-101.5808 0-184.22897778 82.64817778-184.22897778 184.22897778S401.77588148 711.03525925 503.35668148 711.03525925 687.4642963 628.50844445 687.4642963 526.92764445s-82.64817778-184.22897778-184.10761482-184.22897778z m0 334.47632592c-82.8909037 0-150.24734815-67.35644445-150.24734815-150.24734814s67.47780741-150.24734815 150.24734815-150.24734815c82.8909037 0 150.24734815 67.47780741 150.24734815 150.24734815 0 82.8909037-67.47780741 150.24734815-150.24734815 150.24734814z"
    fill="#221714"></path>
  <path
    d="M430.30335154 538.76823018a74.03140741 74.03140741 0 1 0 146.15279965-23.70562004 74.03140741 74.03140741 0 1 0-146.15279965 23.70562004Z"
    fill="#221714"></path>
  <path
    d="M479.32681481 216.23845925c0-9.34494815-7.64586667-16.99081482-16.99081481-16.9908148-77.42957037 0-150.24734815 30.21937778-205.10340742 84.95407407s-84.95407408 127.55247408-84.95407407 205.1034074c0 9.34494815 7.64586667 16.99081482 16.99081482 16.99081483s16.99081482-7.64586667 16.99081482-16.99081483c0-141.26648889 114.93072592-256.07585185 256.07585185-256.07585184 9.34494815 0 16.99081482-7.64586667 16.99081481-16.99081483z"
    fill="#221714"></path>
  <path
    d="M1010.5325037 134.07573333c0-32.52527408-26.33576297-58.86103703-58.86103704-58.86103703s-58.86103703 26.33576297-58.86103703 58.86103703c0 21.84533333 11.89357037 40.77795555 29.4912 50.97244445L904.704 258.83685925c-17.47626667-26.2144-37.62251852-50.60835555-60.19602964-73.18186666-44.29748148-44.29748148-95.87674075-79.12865185-153.40278518-103.40124444-59.46785185-25.12213333-122.69795555-37.98660741-187.86986667-37.9866074s-128.40201482 12.74311111-187.86986666 37.9866074c-57.52604445 24.27259259-109.1053037 59.10376297-153.40278519 103.40124444s-79.12865185 95.87674075-103.40124444 153.40278519c-25.12213333 59.46785185-37.98660741 122.69795555-37.98660741 187.86986667s12.74311111 128.40201482 37.98660741 187.86986666c24.27259259 57.52604445 59.10376297 109.1053037 103.40124444 153.40278519s95.87674075 79.12865185 153.40278519 103.40124445c59.46785185 25.12213333 122.69795555 37.98660741 187.86986666 37.9866074S631.63733333 996.84503703 691.10518518 971.60154075c57.52604445-24.27259259 109.1053037-59.10376297 153.40278518-103.40124445s79.12865185-95.87674075 103.40124445-153.40278519c25.12213333-59.46785185 37.98660741-122.69795555 37.98660741-187.86986666s-12.74311111-128.40201482-37.98660741-187.86986667c-5.5826963-13.1072-11.65084445-25.85031111-18.3258074-38.3506963l25.48622222-107.77031111c30.94755555-1.82044445 55.46287408-27.42802963 55.46287407-58.86103704zM952.03555555 526.92764445c0 60.56011852-11.89357037 119.29979259-35.31662222 174.6413037-22.57351111 53.3997037-54.97742222 101.45943703-96.11946667 142.60148148-41.26340741 41.26340741-89.20177778 73.54595555-142.60148148 96.11946667-55.34151111 23.42305185-114.08118518 35.31662222-174.6413037 35.31662222s-119.29979259-11.89357037-174.6413037-35.31662222c-53.3997037-22.57351111-101.45943703-54.97742222-142.60148148-96.11946667-41.26340741-41.26340741-73.54595555-89.20177778-96.11946667-142.60148148-23.42305185-55.34151111-35.31662222-114.08118518-35.31662222-174.6413037s11.89357037-119.29979259 35.31662222-174.6413037c22.57351111-53.3997037 54.97742222-101.45943703 96.11946667-142.6014815s89.20177778-73.54595555 142.60148148-96.11946666c55.34151111-23.42305185 114.08118518-35.31662222 174.6413037-35.31662222s119.29979259 11.89357037 174.6413037 35.31662222c53.3997037 22.57351111 101.45943703 54.97742222 142.60148148 96.11946666 28.76302222 28.76302222 53.27834075 60.92420741 73.18186667 95.87674075L857.97925925 457.38666667c0 0.24272592-0.12136297 0.36408889-0.12136295 0.60681481-12.37902222 61.40965925-40.53522963 118.81434075-81.67727408 166.1458963L685.88657778 728.02607408c-6.18951111 7.03905185-5.33997037 17.84035555 1.69908147 23.9085037 3.15543703 2.79134815 7.16041482 4.12634075 11.1653926 4.12634074 4.73315555 0 9.46631111-1.94180741 12.86447407-5.82542222l90.29404444-104.00805927c44.78293333-51.70062222 75.73048889-114.32391111 89.20177779-181.43762962l26.33576296-111.4112c22.9376 54.97742222 34.58844445 113.35300741 34.58844444 173.54903704z"
    fill="#221714"></path>
</svg>
