<?xml version="1.0" standalone="no"?><!DOCTYPE svg PUBLIC "-//W3C//DTD SVG 1.1//EN"
  "http://www.w3.org/Graphics/SVG/1.1/DTD/svg11.dtd">
<svg t="1591145143638" class="icon" viewBox="0 0 1024 1024" version="1.1" xmlns="http://www.w3.org/2000/svg" p-id="1565"
     width="200" height="200">
  <defs>
    <style type="text/css"></style>
  </defs>
  <path
    d="M999.00529778 525.98101333c0 124.66403555-13.98101333 246.99790222-43.10812445 362.34126222-1.16508445 5.82542222-4.66033778 12.81592889-8.15559111 17.47626667-11.65084445 17.47626667-30.29219555 26.79694222-48.93354667 26.79694223-10.48576 0-22.13660445-3.49525333-31.45728-9.32067556l-537.10392888-349.52533334c-6.99050667-4.66033778-11.65084445-9.32067555-16.31118222-16.31118222-17.47626667-26.79694222-10.48576-62.91456 15.14609777-80.39082666l537.10392889-364.67143112c5.82542222-3.49525333 12.81592889-6.99050667 19.80643556-8.1555911 31.45728-6.99050667 62.91456 12.81592889 69.90506666 44.27320888 27.96202667 124.66403555 43.10812445 251.65824 43.10812445 377.48736z m-918.08654223 3.49525334c0-138.64504889 15.14609778-267.96942222 46.60337778-384.47786667 3.49525333-12.81592889-4.66033778-25.63185778-16.31118222-27.96202667-12.81592889-3.49525333-25.63185778 4.66033778-27.96202666 16.31118222C50.62656 253.35125333 34.31537778 386.17088 34.31537778 529.47626667c0 111.84810667 16.31118222 237.67722667 47.76846222 372.82702222 2.33016889 10.48576 11.65084445 17.47626667 22.13660445 17.47626666 2.33016889 0 3.49525333 0 5.82542222-1.16508444 12.81592889-3.49525333 19.80643555-15.14609778 17.47626666-27.96202666-31.45728-130.48945778-46.60337778-252.82332445-46.60337778-361.17617778z"
    fill="white"></path>
</svg>
